<svg viewBox="0 0 239.7033658926187 47.6" xmlns="http://www.w3.org/2000/svg" xmlns:xlink="http://www.w3.org/1999/xlink"><defs id="SvgjsDefs11596"></defs><g id="SvgjsG11597" featurekey="nameLeftFeature-0" transform="matrix(1.4423077452112252,0,0,1.4423077452112252,-2.365383821831623,-20.096154216478578)" fill="#ffffff"><path d="M21.32 33.84 l0 5.52 c-2.36 0.64 -4.8 0.92 -7.24 0.92 c-7.56 0 -12.44 -5.2 -12.44 -12.48 c0 -7.52 5.08 -12.48 12.4 -12.48 c2.44 0 4.92 0.24 7.28 0.92 l0 5.56 c-1.92 -0.96 -4.8 -1.24 -6.96 -1.24 c-5.12 0 -7.32 2.4 -7.32 7.2 c0 5.16 2.48 7.32 7.32 7.32 c2.16 0 4.96 -0.24 6.96 -1.24 z"></path></g><g id="SvgjsG11598" featurekey="inlineSymbolFeature-0" transform="matrix(0.44029291948378746,0,0,0.44029291948378746,30.710476902663515,5.798535402581063)" fill="#ffffff"><path xmlns="http://www.w3.org/2000/svg" fill="#444ffd" d="M93.6,61.1l-21.9,9.7c-0.5,0.2-0.9,0.6-1.1,1.1L61,93.7c-0.9,2.1-4.3,1.4-5.2-1.1L36.8,40.1  c-0.8-2.1,0.9-3.8,3.1-3.1l52.6,18.8C95,56.8,95.7,60.1,93.6,61.1z"></path><path xmlns="http://www.w3.org/2000/svg" fill="#ffffff" d="M40.7,67.7c-0.6,0-1.1,0.1-1.7,0.1c-16,0-29-13-29-29c0-16,13-29,29-29s29,13,29,29c0,0.6,0,1.1-0.1,1.7  l4.6,1.2c0.1-1,0.1-1.9,0.1-2.9C72.7,20.1,57.5,5,38.9,5S5.2,20.1,5.2,38.8s15.1,33.8,33.8,33.8c1,0,2-0.1,3-0.1L40.7,67.7z"></path><path xmlns="http://www.w3.org/2000/svg" fill="#ffffff" d="M37.9,57.3c-9.8-0.6-17.6-8.7-17.6-18.6c0-10.3,8.4-18.6,18.6-18.6c9.9,0,18,7.8,18.6,17.6l4.8,1.3  c0-0.1,0-0.1,0-0.2c0-12.9-10.5-23.4-23.4-23.4S15.6,25.9,15.6,38.8c0,12.9,10.5,23.4,23.4,23.4c0.1,0,0.1,0,0.2,0L37.9,57.3z"></path></g><g id="SvgjsG11599" featurekey="nameRightFeature-0" transform="matrix(1.43540681209466,0,0,1.43540681209466,71.64593370426755,-19.818183270056707)" fill="#ffffff"><path d="M21.32 33.84 l0 5.52 c-2.36 0.64 -4.8 0.92 -7.24 0.92 c-7.56 0 -12.44 -5.2 -12.44 -12.48 c0 -7.52 5.08 -12.48 12.4 -12.48 c2.44 0 4.92 0.24 7.28 0.92 l0 5.56 c-1.92 -0.96 -4.8 -1.24 -6.96 -1.24 c-5.12 0 -7.32 2.4 -7.32 7.2 c0 5.16 2.48 7.32 7.32 7.32 c2.16 0 4.96 -0.24 6.96 -1.24 z M30.32 30 l0 10 l-5.4 0 l0 -9.96 c0 -6.48 4.6 -10.24 10.68 -10.24 c0.28 0 0.56 0 0.84 0.04 s0.56 0.12 0.84 0.16 l0 5.24 c-0.2 -0.04 -0.44 -0.12 -0.72 -0.16 s-0.56 -0.04 -0.76 -0.04 c-3.48 0 -5.48 1.48 -5.48 4.96 z M44.36 27.52 c1.44 0.52 2.96 0.76 4.48 0.76 c1.04 0 3.24 -0.2 3.24 -1.64 s-2.04 -1.6 -3.08 -1.6 c-2.04 0 -3.72 0.52 -4.64 2.48 z M56 34.32 l0 5.04 c-2.16 0.6 -4.44 0.88 -6.68 0.88 c-6.36 0 -10.88 -3.8 -10.88 -10.16 c0 -6.28 4.36 -10.28 10.4 -10.28 c4.08 0 8.68 2 8.68 6.64 s-4.8 6.48 -8.72 6.48 c-1.64 0 -3.32 -0.4 -4.76 -1.12 c0.64 2.68 3.28 3.24 5.68 3.24 c0.44 0 0.92 -0.04 1.48 -0.08 s1.12 -0.08 1.72 -0.12 s1.16 -0.12 1.72 -0.24 c0.52 -0.08 1 -0.16 1.36 -0.28 z M75.12 30 c-0.16 -3.24 -1.48 -5.16 -4.92 -5.16 c-3.36 0 -5.08 2.04 -5.08 5.2 c0 3.36 1.88 5.16 5.08 5.16 c3.32 0 4.92 -1.96 4.92 -5.2 z M82.12 40 l-5.4 0 c-0.4 -1 -0.76 -2.04 -1 -3.08 c-1.44 2.28 -3.56 3.28 -6.24 3.28 c-5.72 0 -9.76 -4.76 -9.76 -10.24 c0 -6.28 4.52 -10.16 10.48 -10.16 c6.28 0 10.16 4.16 10.32 10.2 c0.04 0.52 0.04 1.12 0.04 1.84 c0 2.8 0.44 5.6 1.56 8.16 z M95.39999999999999 20.68 l0 5.04 l-5.88 0 l0 4.28 c0 3.24 1.92 5.2 5.16 5.2 c0.36 0 0.72 -0.04 1 -0.08 s0.52 -0.08 0.8 -0.12 l0 5 c-0.36 0.04 -0.64 0.12 -0.84 0.16 c-0.24 0.04 -0.64 0.04 -1.16 0.04 c-6.04 0 -10.36 -4.28 -10.36 -10.2 l0 -14.8 l5.4 0 l0 5.48 l5.88 0 z M103.91999999999999 27.52 c1.44 0.52 2.96 0.76 4.48 0.76 c1.04 0 3.24 -0.2 3.24 -1.64 s-2.04 -1.6 -3.08 -1.6 c-2.04 0 -3.72 0.52 -4.64 2.48 z M115.56 34.32 l0 5.04 c-2.16 0.6 -4.44 0.88 -6.68 0.88 c-6.36 0 -10.88 -3.8 -10.88 -10.16 c0 -6.28 4.36 -10.28 10.4 -10.28 c4.08 0 8.68 2 8.68 6.64 s-4.8 6.48 -8.72 6.48 c-1.64 0 -3.32 -0.4 -4.76 -1.12 c0.64 2.68 3.28 3.24 5.68 3.24 c0.44 0 0.92 -0.04 1.48 -0.08 s1.12 -0.08 1.72 -0.12 s1.16 -0.12 1.72 -0.24 c0.52 -0.08 1 -0.16 1.36 -0.28 z"></path></g></svg>